<svg width="1024" height="1024" viewBox="0 0 1024 1024" fill="none" xmlns="http://www.w3.org/2000/svg">
<path d="M646.4 806.468C646.4 817.11 637.804 825.737 627.2 825.737C616.596 825.737 608 817.11 608 806.468C608 795.827 616.596 787.2 627.2 787.2C637.804 787.2 646.4 795.827 646.4 806.468Z" fill="#1F2328"/>
<ellipse cx="564.8" cy="744.131" rx="36.8" ry="36.931" fill="#1F2328"/>
<circle cx="307.2" cy="873.6" r="28.8" fill="#1F2328"/>
<circle cx="697.6" cy="585.6" r="25.6" stroke="#1F2328" stroke-width="12.8"/>
<ellipse cx="150.4" cy="432.034" rx="9.6" ry="9.63416" fill="#1F2328"/>
<ellipse cx="84.7999" cy="600.028" rx="8" ry="8.02847" fill="#1F2328"/>
<circle cx="196.8" cy="817.6" r="8" fill="#1F2328"/>
<ellipse cx="928" cy="646.434" rx="9.6" ry="9.63416" fill="#1F2328"/>
<ellipse cx="950.4" cy="505.634" rx="9.6" ry="9.63416" fill="#1F2328"/>
<path fill-rule="evenodd" clip-rule="evenodd" d="M691.2 132.461C691.2 149.063 677.741 162.522 661.139 162.522C644.537 162.522 631.078 149.063 631.078 132.461C631.078 115.859 644.537 102.4 661.139 102.4C677.741 102.4 691.2 115.859 691.2 132.461ZM704 132.461C704 156.132 684.811 175.322 661.139 175.322C637.468 175.322 618.278 156.132 618.278 132.461C618.278 108.789 637.468 89.6 661.139 89.6C684.811 89.6 704 108.789 704 132.461ZM684.8 132.8C684.8 146.055 674.055 156.8 660.8 156.8C647.545 156.8 636.8 146.055 636.8 132.8C636.8 119.545 647.545 108.8 660.8 108.8C674.055 108.8 684.8 119.545 684.8 132.8ZM688 132.8C688 147.822 675.822 160 660.8 160C645.778 160 633.6 147.822 633.6 132.8C633.6 117.778 645.778 105.6 660.8 105.6C675.822 105.6 688 117.778 688 132.8Z" fill="#1F2328"/>
<circle cx="780.8" cy="822.377" r="38.4" fill="#1F2328"/>
<ellipse cx="768" cy="160.034" rx="9.6" ry="9.63416" fill="#1F2328"/>
<ellipse cx="137.6" cy="281.634" rx="9.6" ry="9.63416" fill="#1F2328"/>
<ellipse cx="182.4" cy="220.834" rx="9.6" ry="9.63416" fill="#1F2328"/>
<ellipse cx="278.4" cy="137.634" rx="9.6" ry="9.63416" fill="#1F2328"/>
<ellipse cx="476.8" cy="73.6342" rx="9.6" ry="9.63416" fill="#1F2328"/>
<ellipse cx="928" cy="371.234" rx="9.6" ry="9.63416" fill="#1F2328"/>
<circle cx="843.2" cy="785.6" r="17.6" fill="#1F2328"/>
<circle cx="624" cy="179.2" r="12.8" fill="#1F2328"/>
<circle cx="355.2" cy="368" r="12.8" fill="#1F2328"/>
<ellipse cx="464" cy="416.034" rx="9.6" ry="9.63416" fill="#1F2328"/>
<ellipse cx="534.4" cy="278.434" rx="9.6" ry="9.63416" fill="#1F2328"/>
<path d="M278.4 856.063C278.4 867.591 269.088 876.937 257.6 876.937C246.113 876.937 236.8 867.591 236.8 856.063C236.8 844.534 246.113 835.189 257.6 835.189C269.088 835.189 278.4 844.534 278.4 856.063Z" fill="#1F2328"/>
<path d="M630.4 89.6569C630.4 98.5249 623.237 105.714 614.4 105.714C605.563 105.714 598.4 98.5249 598.4 89.6569C598.4 80.7889 605.563 73.6 614.4 73.6C623.237 73.6 630.4 80.7889 630.4 89.6569Z" fill="#1F2328"/>
<path d="M108.8 523.285C108.8 536.587 98.0548 547.371 84.7999 547.371C71.5451 547.371 60.7999 536.587 60.7999 523.285C60.7999 509.983 71.5451 499.2 84.7999 499.2C98.0548 499.2 108.8 509.983 108.8 523.285Z" fill="#1F2328"/>
<path d="M115.2 388.863C115.2 398.617 107.32 406.525 97.6 406.525C87.8798 406.525 80 398.617 80 388.863C80 379.108 87.8798 371.2 97.6 371.2C107.32 371.2 115.2 379.108 115.2 388.863Z" fill="#1F2328"/>
<path d="M371.2 278.4C371.2 287.237 364.037 294.4 355.2 294.4C346.363 294.4 339.2 287.237 339.2 278.4C339.2 269.563 346.363 262.4 355.2 262.4C364.037 262.4 371.2 269.563 371.2 278.4Z" fill="#1F2328"/>
<path d="M553.6 465.674C553.6 477.202 544.288 486.548 532.8 486.548C521.312 486.548 512 477.202 512 465.674C512 454.146 521.312 444.8 532.8 444.8C544.288 444.8 553.6 454.146 553.6 465.674Z" fill="#1F2328"/>
<circle cx="549.5" cy="243.5" r="15.5" fill="#1F2328"/>
<path d="M476.8 211.291C476.8 225.48 465.338 236.982 451.2 236.982C437.061 236.982 425.6 225.48 425.6 211.291C425.6 197.102 437.061 185.6 451.2 185.6C465.338 185.6 476.8 197.102 476.8 211.291Z" fill="#1F2328"/>
<path d="M960 465.6C960 484.157 944.957 499.2 926.4 499.2C907.843 499.2 892.8 484.157 892.8 465.6C892.8 447.043 907.843 432 926.4 432C944.957 432 960 447.043 960 465.6Z" fill="#1F2328"/>
<circle cx="579.2" cy="672" r="28.8" fill="black"/>
<path d="M531.2 417.697C531.2 432.772 519.022 444.994 504 444.994C488.978 444.994 476.8 432.772 476.8 417.697C476.8 402.621 488.978 390.4 504 390.4C519.022 390.4 531.2 402.621 531.2 417.697Z" fill="#1F2328"/>
<path d="M323.2 134.457C323.2 143.325 316.037 150.514 307.2 150.514C298.363 150.514 291.2 143.325 291.2 134.457C291.2 125.589 298.363 118.4 307.2 118.4C316.037 118.4 323.2 125.589 323.2 134.457Z" fill="#1F2328"/>
<path d="M92.8 569.6C92.8 576.669 87.0692 582.4 80 582.4C72.9307 582.4 67.2 576.669 67.2 569.6C67.2 562.531 72.9307 556.8 80 556.8C87.0692 556.8 92.8 562.531 92.8 569.6Z" fill="#1F2328"/>
<path d="M470.4 88.074C470.4 99.6024 461.088 108.948 449.6 108.948C438.113 108.948 428.8 99.6024 428.8 88.074C428.8 76.5456 438.113 67.2 449.6 67.2C461.088 67.2 470.4 76.5456 470.4 88.074Z" fill="#1F2328"/>
<path d="M307.2 356.908C307.2 373.757 293.589 387.416 276.8 387.416C260.01 387.416 246.4 373.757 246.4 356.908C246.4 340.059 260.01 326.4 276.8 326.4C293.589 326.4 307.2 340.059 307.2 356.908Z" fill="#1F2328"/>
<path d="M947.2 411.308C947.2 421.063 939.32 428.971 929.6 428.971C919.88 428.971 912 421.063 912 411.308C912 401.553 919.88 393.646 929.6 393.646C939.32 393.646 947.2 401.553 947.2 411.308Z" fill="#1F2328"/>
<path d="M233.6 835.2C233.6 842.269 227.869 848 220.8 848C213.731 848 208 842.269 208 835.2C208 828.131 213.731 822.4 220.8 822.4C227.869 822.4 233.6 828.131 233.6 835.2Z" fill="#1F2328"/>
<path d="M649.6 921.6C649.6 932.204 641.004 940.8 630.4 940.8C619.796 940.8 611.2 932.204 611.2 921.6C611.2 910.996 619.796 902.4 630.4 902.4C641.004 902.4 649.6 910.996 649.6 921.6Z" fill="#1F2328"/>
<path d="M460.845 936.085C460.845 945.853 452.955 953.771 443.223 953.771C433.49 953.771 425.6 945.853 425.6 936.085C425.6 926.318 433.49 918.4 443.223 918.4C452.955 918.4 460.845 926.318 460.845 936.085Z" fill="#1F2328"/>
<path d="M137.6 448.125C137.6 467.635 121.84 483.451 102.4 483.451C82.9595 483.451 67.2 467.635 67.2 448.125C67.2 428.616 82.9595 412.8 102.4 412.8C121.84 412.8 137.6 428.616 137.6 448.125Z" fill="#1F2328"/>
<ellipse cx="331.2" cy="324.908" rx="30.4" ry="30.5082" fill="#1F2328"/>
<path d="M342.4 331.331C342.4 335.765 338.818 339.359 334.4 339.359C329.982 339.359 326.4 335.765 326.4 331.331C326.4 326.897 329.982 323.303 334.4 323.303C338.818 323.303 342.4 326.897 342.4 331.331Z" fill="#1F2328"/>
<ellipse cx="564.8" cy="516.885" rx="24" ry="24.0854" fill="#1F2328"/>
<path d="M748.8 147.2C748.8 157.804 740.204 166.4 729.6 166.4C718.996 166.4 710.4 157.804 710.4 147.2C710.4 136.596 718.996 128 729.6 128C740.204 128 748.8 136.596 748.8 147.2Z" fill="#1F2328"/>
<circle cx="376" cy="235.2" r="22.4" stroke="#1F2328" stroke-width="9.6"/>
<ellipse cx="174.4" cy="257.685" rx="24" ry="24.0854" fill="#1F2328"/>
<path fill-rule="evenodd" clip-rule="evenodd" d="M801.6 787.2C814.855 787.2 825.6 776.455 825.6 763.2C825.6 749.945 814.855 739.2 801.6 739.2C788.345 739.2 777.6 749.945 777.6 763.2C777.6 776.455 788.345 787.2 801.6 787.2Z" fill="#1F2328"/>
<path d="M528 240C528 248.837 520.837 256 512 256C503.163 256 496 248.837 496 240C496 231.163 503.163 224 512 224C520.837 224 528 231.163 528 240Z" fill="#1F2328"/>
<path fill-rule="evenodd" clip-rule="evenodd" d="M652.8 590.4C652.8 612.491 634.891 630.4 612.8 630.4C590.709 630.4 572.8 612.491 572.8 590.4C572.8 568.309 590.709 550.4 612.8 550.4C634.891 550.4 652.8 568.309 652.8 590.4ZM665.6 590.4C665.6 619.561 641.961 643.2 612.8 643.2C583.639 643.2 560 619.561 560 590.4C560 561.239 583.639 537.6 612.8 537.6C641.961 537.6 665.6 561.239 665.6 590.4ZM648 592C648 610.557 632.957 625.6 614.4 625.6C595.843 625.6 580.8 610.557 580.8 592C580.8 573.444 595.843 558.4 614.4 558.4C632.957 558.4 648 573.444 648 592ZM651.2 592C651.2 612.325 634.724 628.8 614.4 628.8C594.076 628.8 577.6 612.325 577.6 592C577.6 571.676 594.076 555.2 614.4 555.2C634.724 555.2 651.2 571.676 651.2 592Z" fill="#1F2328"/>
<path fill-rule="evenodd" clip-rule="evenodd" d="M780 621C794.181 621 806 609.315 806 594.5C806 579.685 794.181 568 780 568C765.819 568 754 579.685 754 594.5C754 609.315 765.819 621 780 621ZM780 637C803.196 637 822 617.972 822 594.5C822 571.028 803.196 552 780 552C756.804 552 738 571.028 738 594.5C738 617.972 756.804 637 780 637Z" fill="#1F2328"/>
<path fill-rule="evenodd" clip-rule="evenodd" d="M388.8 924.8C409.124 924.8 425.6 908.324 425.6 888C425.6 867.676 409.124 851.2 388.8 851.2C368.476 851.2 352 867.676 352 888C352 908.324 368.476 924.8 388.8 924.8ZM388.8 937.6C416.193 937.6 438.4 915.393 438.4 888C438.4 860.607 416.193 838.4 388.8 838.4C361.407 838.4 339.2 860.607 339.2 888C339.2 915.393 361.407 937.6 388.8 937.6Z" fill="#1F2328"/>
<path fill-rule="evenodd" clip-rule="evenodd" d="M388.8 192C414.426 192 435.2 171.226 435.2 145.6C435.2 119.974 414.426 99.2 388.8 99.2C363.174 99.2 342.4 119.974 342.4 145.6C342.4 171.226 363.174 192 388.8 192ZM388.8 208C423.262 208 451.2 180.063 451.2 145.6C451.2 111.137 423.262 83.2 388.8 83.2C354.337 83.2 326.4 111.137 326.4 145.6C326.4 180.063 354.337 208 388.8 208ZM390.691 178.182C407.641 178.182 421.382 164.441 421.382 147.491C421.382 130.541 407.641 116.8 390.691 116.8C387.918 116.8 385.231 117.168 382.676 117.857C384.653 117.451 386.702 117.237 388.8 117.237C405.509 117.237 419.054 130.783 419.054 147.492C419.054 164.201 405.509 177.746 388.8 177.746C386.709 177.746 384.668 177.534 382.696 177.13C385.245 177.816 387.925 178.182 390.691 178.182ZM390.691 190.982C414.71 190.982 434.182 171.51 434.182 147.491C434.182 123.472 414.71 104 390.691 104C366.671 104 347.2 123.472 347.2 147.491C347.2 171.51 366.671 190.982 390.691 190.982ZM388.801 145.601C395.067 145.601 400.146 140.521 400.146 134.255C400.146 127.989 395.067 122.91 388.801 122.91C382.535 122.91 377.455 127.989 377.455 134.255C377.455 140.521 382.535 145.601 388.801 145.601ZM381.236 150.327C381.236 152.938 379.119 155.055 376.509 155.055C373.898 155.055 371.781 152.938 371.781 150.327C371.781 147.717 373.898 145.6 376.509 145.6C379.119 145.6 381.236 147.717 381.236 150.327Z" fill="#1F2328"/>
<path fill-rule="evenodd" clip-rule="evenodd" d="M231.4 352C231.4 380.829 208.029 404.2 179.2 404.2C150.371 404.2 127 380.829 127 352C127 323.171 150.371 299.8 179.2 299.8C208.029 299.8 231.4 323.171 231.4 352ZM246.4 352C246.4 389.114 216.314 419.2 179.2 419.2C142.086 419.2 112 389.114 112 352C112 314.886 142.086 284.8 179.2 284.8C216.314 284.8 246.4 314.886 246.4 352ZM223 352C223 374.644 204.644 393 182 393C159.356 393 141 374.644 141 352C141 329.356 159.356 311 182 311C204.644 311 223 329.356 223 352ZM188.826 341.864C188.826 348.868 183.148 354.545 176.145 354.545C169.141 354.545 163.464 348.868 163.464 341.864C163.464 334.861 169.141 329.183 176.145 329.183C183.148 329.183 188.826 334.861 188.826 341.864Z" fill="#1F2328"/>
<path fill-rule="evenodd" clip-rule="evenodd" d="M845.333 566.885C845.333 589.801 861.409 608.963 882.899 613.709C859.458 609.759 841.6 589.365 841.6 564.8C841.6 537.407 863.807 515.2 891.2 515.2C915.763 515.2 936.156 533.055 940.108 556.494C935.361 535.007 916.2 518.933 893.285 518.933C866.802 518.933 845.333 540.402 845.333 566.885ZM891.2 633.6C929.197 633.6 960 602.797 960 564.8C960 526.803 929.197 496 891.2 496C853.203 496 822.4 526.803 822.4 564.8C822.4 602.797 853.203 633.6 891.2 633.6ZM893.285 605.236C914.466 605.236 931.636 588.066 931.636 566.885C931.636 545.704 914.466 528.533 893.285 528.533C872.104 528.533 854.933 545.704 854.933 566.885C854.933 588.066 872.104 605.236 893.285 605.236ZM891.2 600.242C909.623 600.242 924.557 585.307 924.557 566.884C924.557 548.462 909.623 533.527 891.2 533.527C872.777 533.527 857.842 548.462 857.842 566.884C857.842 585.307 872.777 600.242 891.2 600.242ZM903.709 581.005C910.618 581.005 916.218 575.404 916.218 568.496C916.218 561.587 910.618 555.987 903.709 555.987C896.801 555.987 891.2 561.587 891.2 568.496C891.2 575.404 896.801 581.005 903.709 581.005ZM893.024 581.194C893.024 584.073 890.691 586.406 887.812 586.406C884.934 586.406 882.6 584.073 882.6 581.194C882.6 578.316 884.934 575.982 887.812 575.982C890.691 575.982 893.024 578.316 893.024 581.194Z" fill="#1F2328"/>
<path fill-rule="evenodd" clip-rule="evenodd" d="M534.4 208C569.746 208 598.4 179.346 598.4 144C598.4 108.654 569.746 80 534.4 80C499.054 80 470.4 108.654 470.4 144C470.4 179.346 499.054 208 534.4 208ZM534.4 224C578.583 224 614.4 188.183 614.4 144C614.4 99.8172 578.583 64 534.4 64C490.217 64 454.4 99.8172 454.4 144C454.4 188.183 490.217 224 534.4 224ZM535.69 189.936C558.922 189.936 577.755 171.103 577.755 147.871C577.755 124.64 558.922 105.807 535.69 105.807C512.459 105.807 493.626 124.64 493.626 147.871C493.626 171.103 512.459 189.936 535.69 189.936ZM535.69 205.936C567.758 205.936 593.755 179.939 593.755 147.871C593.755 115.803 567.758 89.8067 535.69 89.8067C503.622 89.8067 477.626 115.803 477.626 147.871C477.626 179.939 503.622 205.936 535.69 205.936ZM567.948 150.452C567.948 168.268 553.506 182.71 535.69 182.71C517.875 182.71 503.432 168.268 503.432 150.452C503.432 132.636 517.875 118.194 535.69 118.194C553.506 118.194 567.948 132.636 567.948 150.452ZM532.074 134.901C532.074 140.174 527.799 144.448 522.526 144.448C517.254 144.448 512.979 140.174 512.979 134.901C512.979 129.628 517.254 125.354 522.526 125.354C527.799 125.354 532.074 129.628 532.074 134.901ZM520.407 154.529C523.19 154.529 525.447 152.273 525.447 149.489C525.447 146.705 523.19 144.449 520.407 144.449C517.623 144.449 515.366 146.705 515.366 149.489C515.366 152.273 517.623 154.529 520.407 154.529ZM544.008 128.934C544.008 132.23 541.336 134.901 538.041 134.901C534.745 134.901 532.074 132.23 532.074 128.934C532.074 125.639 534.745 122.967 538.041 122.967C541.336 122.967 544.008 125.639 544.008 128.934Z" fill="#1F2328"/>
<path fill-rule="evenodd" clip-rule="evenodd" d="M270.4 284.8C303.095 284.8 329.6 258.295 329.6 225.6C329.6 192.905 303.095 166.4 270.4 166.4C237.705 166.4 211.2 192.905 211.2 225.6C211.2 258.295 237.705 284.8 270.4 284.8ZM270.4 300.8C311.932 300.8 345.6 267.132 345.6 225.6C345.6 184.068 311.932 150.4 270.4 150.4C228.868 150.4 195.2 184.068 195.2 225.6C195.2 267.132 228.868 300.8 270.4 300.8ZM272.678 267.492C294.556 267.492 312.291 249.757 312.291 227.879C312.291 206.002 294.556 188.267 272.678 188.267C250.801 188.267 233.066 206.002 233.066 227.879C233.066 249.757 250.801 267.492 272.678 267.492ZM272.678 280.292C301.625 280.292 325.091 256.826 325.091 227.879C325.091 198.933 301.625 175.467 272.678 175.467C243.732 175.467 220.266 198.933 220.266 227.879C220.266 256.826 243.732 280.292 272.678 280.292ZM270.4 264.34C290.536 264.34 306.86 248.016 306.86 227.879C306.86 207.742 290.536 191.419 270.4 191.419C250.263 191.419 233.939 207.742 233.939 227.879C233.939 248.016 250.263 264.34 270.4 264.34ZM270.401 225.6C277.952 225.6 284.074 219.478 284.074 211.927C284.074 204.376 277.952 198.254 270.401 198.254C262.85 198.254 256.728 204.376 256.728 211.927C256.728 219.478 262.85 225.6 270.401 225.6ZM261.284 231.297C261.284 234.443 258.734 236.994 255.587 236.994C252.441 236.994 249.89 234.443 249.89 231.297C249.89 228.151 252.441 225.6 255.587 225.6C258.734 225.6 261.284 228.151 261.284 231.297Z" fill="#1F2328"/>
<path d="M745.6 862.4C745.6 895.095 719.095 921.6 686.4 921.6C653.705 921.6 627.2 895.095 627.2 862.4C627.2 829.705 653.705 803.2 686.4 803.2C719.095 803.2 745.6 829.705 745.6 862.4Z" fill="#1F2328"/>
<path fill-rule="evenodd" clip-rule="evenodd" d="M905.6 694.4C905.6 720.91 884.11 742.4 857.6 742.4C831.09 742.4 809.6 720.91 809.6 694.4C809.6 667.89 831.09 646.4 857.6 646.4C884.11 646.4 905.6 667.89 905.6 694.4ZM921.6 694.4C921.6 729.746 892.946 758.4 857.6 758.4C822.254 758.4 793.6 729.746 793.6 694.4C793.6 659.054 822.254 630.4 857.6 630.4C892.946 630.4 921.6 659.054 921.6 694.4ZM857.6 738.036C880.093 738.036 898.327 719.802 898.327 697.309C898.327 674.816 880.093 656.582 857.6 656.582C835.107 656.582 816.873 674.816 816.873 697.309C816.873 719.802 835.107 738.036 857.6 738.036Z" fill="#1F2328"/>
<path fill-rule="evenodd" clip-rule="evenodd" d="M532.8 940.8C572.564 940.8 604.8 908.565 604.8 868.8C604.8 829.036 572.564 796.8 532.8 796.8C493.035 796.8 460.8 829.036 460.8 868.8C460.8 908.565 493.035 940.8 532.8 940.8ZM532.8 960C583.168 960 624 919.168 624 868.8C624 818.432 583.168 777.6 532.8 777.6C482.432 777.6 441.6 818.432 441.6 868.8C441.6 919.168 482.432 960 532.8 960ZM533.963 920.727C561.999 920.727 584.727 897.999 584.727 869.963C584.727 841.927 561.999 819.2 533.963 819.2C505.927 819.2 483.2 841.927 483.2 869.963C483.2 897.999 505.927 920.727 533.963 920.727ZM533.963 933.527C569.069 933.527 597.527 905.068 597.527 869.963C597.527 834.858 569.069 806.4 533.963 806.4C498.858 806.4 470.4 834.858 470.4 869.963C470.4 905.068 498.858 933.527 533.963 933.527ZM532.8 915.781C557.221 915.781 577.018 895.984 577.018 871.563C577.018 847.142 557.221 827.345 532.8 827.345C508.379 827.345 488.581 847.142 488.581 871.563C488.581 895.984 508.379 915.781 532.8 915.781Z" fill="#1F2328"/>
<path fill-rule="evenodd" clip-rule="evenodd" d="M697.6 777.6C734.714 777.6 764.8 747.514 764.8 710.4C764.8 673.287 734.714 643.2 697.6 643.2C660.486 643.2 630.4 673.287 630.4 710.4C630.4 747.514 660.486 777.6 697.6 777.6ZM697.6 803.2C748.852 803.2 790.4 761.652 790.4 710.4C790.4 659.148 748.852 617.6 697.6 617.6C646.348 617.6 604.8 659.148 604.8 710.4C604.8 761.652 646.348 803.2 697.6 803.2ZM697.6 767.8C729.301 767.8 755 742.101 755 710.4C755 678.699 729.301 653 697.6 653C665.899 653 640.2 678.699 640.2 710.4C640.2 742.101 665.899 767.8 697.6 767.8ZM697.6 774.2C732.836 774.2 761.4 745.636 761.4 710.4C761.4 675.164 732.836 646.6 697.6 646.6C662.364 646.6 633.8 675.164 633.8 710.4C633.8 745.636 662.364 774.2 697.6 774.2ZM699.05 753.9C722.274 753.9 741.1 735.074 741.1 711.85C741.1 688.626 722.274 669.8 699.05 669.8C675.826 669.8 657 688.626 657 711.85C657 735.074 675.826 753.9 699.05 753.9Z" fill="#1F2328"/>
<path fill-rule="evenodd" clip-rule="evenodd" d="M448.2 387.4C485.314 387.4 515.4 357.314 515.4 320.2C515.4 283.086 485.314 253 448.2 253C411.086 253 381 283.086 381 320.2C381 357.314 411.086 387.4 448.2 387.4ZM448.2 403.4C494.15 403.4 531.4 366.15 531.4 320.2C531.4 274.25 494.15 237 448.2 237C402.25 237 365 274.25 365 320.2C365 366.15 402.25 403.4 448.2 403.4ZM448.4 370C475.793 370 498 347.793 498 320.4C498 293.007 475.793 270.8 448.4 270.8C421.007 270.8 398.8 293.007 398.8 320.4C398.8 347.793 421.007 370 448.4 370ZM448.4 382.8C482.863 382.8 510.8 354.863 510.8 320.4C510.8 285.937 482.863 258 448.4 258C413.937 258 386 285.937 386 320.4C386 354.863 413.937 382.8 448.4 382.8ZM448 357C468.435 357 485 340.435 485 320C485 299.565 468.435 283 448 283C427.565 283 411 299.565 411 320C411 340.435 427.565 357 448 357Z" fill="#1F2328"/>
<path fill-rule="evenodd" clip-rule="evenodd" d="M857.6 361.6C857.6 435.827 797.427 496 723.2 496C648.973 496 588.8 435.827 588.8 361.6C588.8 287.373 648.973 227.2 723.2 227.2C797.427 227.2 857.6 287.373 857.6 361.6ZM915.2 361.6C915.2 467.639 829.239 553.6 723.2 553.6C617.161 553.6 531.2 467.639 531.2 361.6C531.2 255.561 617.161 169.6 723.2 169.6C829.239 169.6 915.2 255.561 915.2 361.6ZM723.2 461.544C774.613 461.544 816.291 419.717 816.291 368.122C816.291 316.526 774.613 274.699 723.2 274.699C671.787 274.699 630.109 316.526 630.109 368.122C630.109 419.717 671.787 461.544 723.2 461.544Z" fill="#1F2328"/>
<path fill-rule="evenodd" clip-rule="evenodd" d="M324.8 777.6C415.817 777.6 489.6 703.817 489.6 612.8C489.6 521.783 415.817 448 324.8 448C233.783 448 160 521.783 160 612.8C160 703.817 233.783 777.6 324.8 777.6ZM324.8 841.6C451.163 841.6 553.6 739.163 553.6 612.8C553.6 486.437 451.163 384 324.8 384C198.437 384 96 486.437 96 612.8C96 739.163 198.437 841.6 324.8 841.6ZM324.8 745.6C398.143 745.6 457.6 686.143 457.6 612.8C457.6 539.457 398.143 480 324.8 480C251.457 480 192 539.457 192 612.8C192 686.143 251.457 745.6 324.8 745.6ZM324.8 764.8C408.747 764.8 476.8 696.747 476.8 612.8C476.8 528.853 408.747 460.8 324.8 460.8C240.853 460.8 172.8 528.853 172.8 612.8C172.8 696.747 240.853 764.8 324.8 764.8ZM323.2 710.4C376.219 710.4 419.2 667.419 419.2 614.4C419.2 561.381 376.219 518.4 323.2 518.4C270.181 518.4 227.2 561.381 227.2 614.4C227.2 667.419 270.181 710.4 323.2 710.4Z" fill="#1F2328"/>
</svg>
